# xmcd
#
# Track frame offsets:
#  150
#  21890
#  40767
#  58958
#  78618
#  96457
#  111220
#  138886
#  159334
#  178735
#  193589
#  208098
#  222701
#  244082
#
# Disc length: 3528 seconds
#
# Revision: 0
# Processed by: cddbd v1.5.2PL0 Copyright (c) Steve Scherf et al.
# Submitted via: AltoMP3_Maker 3.0
#
DISCID=d00dc60e
DTITLE=Ernie Hawkins - Whinin' Boy
DYEAR=1900
DGENRE=
TTITLE0=Whinin' Boy
TTITLE1=Susie (of the Islands)
TTITLE2=Makin' whoopee
TTITLE3=The Southbound Sneak
TTITLE4=Basin Street Blues
TTITLE5=My Poodle Has Fleas
TTITLE6=Vicksburg Blues
TTITLE7=I'm Coming Virginia
TTITLE8=Back in Your Own Backyard
TTITLE9=Weather Bird
TTITLE10=Blue Skies
TTITLE11=Shuffle Rag
TTITLE12=There Is a Table in Heaven
TTITLE13=Whinin' Boy (instrumental)
EXTD=
EXTT0=
EXTT1=
EXTT2=
EXTT3=
EXTT4=
EXTT5=
EXTT6=
EXTT7=
EXTT8=
EXTT9=
EXTT10=
EXTT11=
EXTT12=
EXTT13=
PLAYORDER=
